<?xml version="1.0" encoding="UTF-8" standalone="no"?><!DOCTYPE svg PUBLIC "-//W3C//DTD SVG 1.1//EN" "http://www.w3.org/Graphics/SVG/1.1/DTD/svg11.dtd"><!-- Generated by graphviz version 2.40.1 (20161225.0304)
 --><!-- Title: %0 Pages: 1 --><svg xmlns="http://www.w3.org/2000/svg" xmlns:xlink="http://www.w3.org/1999/xlink" width="295pt" height="288pt" viewBox="0.00 0.00 295.02 288.33">
<g id="graph0" class="graph" transform="scale(1 1) rotate(0) translate(4 284.3315)">
<title>%0</title>
<polygon fill="#ffffff" stroke="transparent" points="-4,4 -4,-284.3315 291.0152,-284.3315 291.0152,4 -4,4"/>
<!-- 1 -->
<g id="node1" class="node">
<title>1</title>
<ellipse fill="none" stroke="#0000ff" cx="143.5581" cy="-129.8973" rx="11" ry="11"/>
<text text-anchor="middle" x="143.5581" y="-127.4973" font-family="Times,serif" font-size="8.00" fill="#000000">1</text>
</g>
<!-- 2 -->
<g id="node2" class="node">
<title>2</title>
<ellipse fill="none" stroke="#000000" cx="184.7932" cy="-73.9392" rx="11" ry="11"/>
<text text-anchor="middle" x="184.7932" y="-71.5392" font-family="Times,serif" font-size="8.00" fill="#000000">2</text>
</g>
<!-- 1&#45;&#45;2 -->
<g id="edge1" class="edge">
<title>1--2</title>
<path fill="none" stroke="#000000" d="M150.1833,-120.9066C157.8326,-110.5261 170.3475,-93.5428 178.0475,-83.0934"/>
</g>
<!-- 3 -->
<g id="node3" class="node">
<title>3</title>
<ellipse fill="none" stroke="#000000" cx="103.0653" cy="-73.4829" rx="11" ry="11"/>
<text text-anchor="middle" x="103.0653" y="-71.0829" font-family="Times,serif" font-size="8.00" fill="#000000">3</text>
</g>
<!-- 1&#45;&#45;3 -->
<g id="edge2" class="edge">
<title>1--3</title>
<path fill="none" stroke="#000000" d="M137.0523,-120.8333C129.5406,-110.3681 117.251,-93.2464 109.6896,-82.7118"/>
</g>
<!-- 4 -->
<g id="node4" class="node">
<title>4</title>
<ellipse fill="none" stroke="#000000" cx="77.4246" cy="-151.1242" rx="11" ry="11"/>
<text text-anchor="middle" x="77.4246" y="-148.7242" font-family="Times,serif" font-size="8.00" fill="#000000">4</text>
</g>
<!-- 1&#45;&#45;4 -->
<g id="edge3" class="edge">
<title>1--4</title>
<path fill="none" stroke="#000000" d="M132.9326,-133.3077C120.6644,-137.2455 100.593,-143.6879 88.2435,-147.6517"/>
</g>
<!-- 5 -->
<g id="node5" class="node">
<title>5</title>
<ellipse fill="none" stroke="#000000" cx="143.3313" cy="-199.4192" rx="11" ry="11"/>
<text text-anchor="middle" x="143.3313" y="-197.0192" font-family="Times,serif" font-size="8.00" fill="#000000">5</text>
</g>
<!-- 1&#45;&#45;5 -->
<g id="edge4" class="edge">
<title>1--5</title>
<path fill="none" stroke="#000000" d="M143.5217,-141.0672C143.4796,-153.9639 143.4108,-175.0638 143.3684,-188.046"/>
</g>
<!-- 6 -->
<g id="node6" class="node">
<title>6</title>
<ellipse fill="none" stroke="#000000" cx="209.5952" cy="-151.7299" rx="11" ry="11"/>
<text text-anchor="middle" x="209.5952" y="-149.3299" font-family="Times,serif" font-size="8.00" fill="#000000">6</text>
</g>
<!-- 1&#45;&#45;6 -->
<g id="edge5" class="edge">
<title>1--6</title>
<path fill="none" stroke="#000000" d="M154.1681,-133.4051C166.4184,-137.4552 186.4607,-144.0814 198.7921,-148.1583"/>
</g>
<!-- 2&#45;&#45;3 -->
<g id="edge6" class="edge">
<title>2--3</title>
<path fill="none" stroke="#000000" d="M173.771,-73.8777C158.1727,-73.7906 129.8191,-73.6323 114.1739,-73.5449"/>
</g>
<!-- 2&#45;&#45;6 -->
<g id="edge7" class="edge">
<title>2--6</title>
<path fill="none" stroke="#000000" d="M188.1381,-84.4304C192.8453,-99.1944 201.3802,-125.9638 206.1441,-140.9058"/>
</g>
<!-- 7 -->
<g id="node7" class="node">
<title>7</title>
<ellipse fill="none" stroke="#000000" cx="257.009" cy="-93.8802" rx="11" ry="11"/>
<text text-anchor="middle" x="257.009" y="-91.4802" font-family="Times,serif" font-size="8.00" fill="#000000">4,7</text>
</g>
<!-- 2&#45;&#45;7 -->
<g id="edge8" class="edge">
<title>2--7</title>
<path fill="none" stroke="#000000" d="M195.4489,-76.8816C209.1025,-80.6518 232.635,-87.1498 246.3096,-90.9258"/>
</g>
<!-- 8 -->
<g id="node8" class="node">
<title>8</title>
<ellipse fill="none" stroke="#000000" cx="226.382" cy="-17.7693" rx="11" ry="11"/>
<text text-anchor="middle" x="226.382" y="-15.3693" font-family="Times,serif" font-size="8.00" fill="#000000">4,5,7</text>
</g>
<!-- 2&#45;&#45;8 -->
<g id="edge9" class="edge">
<title>2--8</title>
<path fill="none" stroke="#000000" d="M191.4751,-64.9146C199.1901,-54.4947 211.8123,-37.4471 219.5784,-26.9582"/>
</g>
<!-- 9 -->
<g id="node9" class="node">
<title>9</title>
<ellipse fill="none" stroke="#000000" cx="144.4329" cy="-11" rx="11" ry="11"/>
<text text-anchor="middle" x="144.4329" y="-8.6" font-family="Times,serif" font-size="8.00" fill="#000000">5,7</text>
</g>
<!-- 2&#45;&#45;9 -->
<g id="edge10" class="edge">
<title>2--9</title>
<path fill="none" stroke="#000000" d="M178.8379,-64.6523C171.2071,-52.7526 158.0552,-32.243 150.4127,-20.325"/>
</g>
<!-- 3&#45;&#45;4 -->
<g id="edge11" class="edge">
<title>3--4</title>
<path fill="none" stroke="#000000" d="M99.6073,-83.954C94.741,-98.6896 85.9175,-125.4076 80.9924,-140.3209"/>
</g>
<!-- 3&#45;&#45;9 -->
<g id="edge12" class="edge">
<title>3--9</title>
<path fill="none" stroke="#000000" d="M109.1693,-64.2633C116.9905,-52.4499 130.4707,-32.089 138.304,-20.2574"/>
</g>
<!-- 10 -->
<g id="node10" class="node">
<title>10</title>
<ellipse fill="none" stroke="#000000" cx="62.4327" cy="-16.7429" rx="11" ry="11"/>
<text text-anchor="middle" x="62.4327" y="-14.3429" font-family="Times,serif" font-size="8.00" fill="#000000">5,6,7</text>
</g>
<!-- 3&#45;&#45;10 -->
<g id="edge13" class="edge">
<title>3--10</title>
<path fill="none" stroke="#000000" d="M96.537,-64.3666C88.9994,-53.841 76.6674,-36.6204 69.0798,-26.025"/>
</g>
<!-- 11 -->
<g id="node11" class="node">
<title>11</title>
<ellipse fill="none" stroke="#000000" cx="30.7008" cy="-92.6685" rx="11" ry="11"/>
<text text-anchor="middle" x="30.7008" y="-90.2685" font-family="Times,serif" font-size="8.00" fill="#000000">6,7</text>
</g>
<!-- 3&#45;&#45;11 -->
<g id="edge14" class="edge">
<title>3--11</title>
<path fill="none" stroke="#000000" d="M92.3877,-76.3138C78.706,-79.9412 55.125,-86.193 41.4222,-89.826"/>
</g>
<!-- 4&#45;&#45;5 -->
<g id="edge15" class="edge">
<title>4--5</title>
<path fill="none" stroke="#000000" d="M86.3131,-157.6375C98.8216,-166.8034 121.5014,-183.4227 134.1608,-192.6992"/>
</g>
<!-- 4&#45;&#45;11 -->
<g id="edge16" class="edge">
<title>4--11</title>
<path fill="none" stroke="#000000" d="M70.5304,-142.4989C61.6965,-131.4469 46.4709,-112.3983 37.6233,-101.3292"/>
</g>
<!-- 12 -->
<g id="node12" class="node">
<title>12</title>
<ellipse fill="none" stroke="#000000" cx="11" cy="-172.5729" rx="11" ry="11"/>
<text text-anchor="middle" x="11" y="-170.1729" font-family="Times,serif" font-size="8.00" fill="#000000">2,6,7</text>
</g>
<!-- 4&#45;&#45;12 -->
<g id="edge17" class="edge">
<title>4--12</title>
<path fill="none" stroke="#000000" d="M66.7524,-154.5703C54.4302,-158.5492 34.2703,-165.0589 21.8665,-169.0641"/>
</g>
<!-- 13 -->
<g id="node13" class="node">
<title>13</title>
<ellipse fill="none" stroke="#000000" cx="73.448" cy="-225.9673" rx="11" ry="11"/>
<text text-anchor="middle" x="73.448" y="-223.5673" font-family="Times,serif" font-size="8.00" fill="#000000">2,7</text>
</g>
<!-- 4&#45;&#45;13 -->
<g id="edge18" class="edge">
<title>4--13</title>
<path fill="none" stroke="#000000" d="M76.8379,-162.1676C76.086,-176.3179 74.7902,-200.7065 74.0372,-214.8787"/>
</g>
<!-- 5&#45;&#45;6 -->
<g id="edge19" class="edge">
<title>5--6</title>
<path fill="none" stroke="#000000" d="M152.2679,-192.9876C164.8442,-183.9366 187.647,-167.5257 200.3749,-158.3656"/>
</g>
<!-- 5&#45;&#45;13 -->
<g id="edge20" class="edge">
<title>5--13</title>
<path fill="none" stroke="#000000" d="M133.0198,-203.3365C119.8072,-208.3558 97.0348,-217.0069 83.8018,-222.034"/>
</g>
<!-- 14 -->
<g id="node14" class="node">
<title>14</title>
<ellipse fill="none" stroke="#000000" cx="143.279" cy="-269.3315" rx="11" ry="11"/>
<text text-anchor="middle" x="143.279" y="-266.9315" font-family="Times,serif" font-size="8.00" fill="#000000">2,3,7</text>
</g>
<!-- 5&#45;&#45;14 -->
<g id="edge21" class="edge">
<title>5--14</title>
<path fill="none" stroke="#000000" d="M143.3229,-210.6518C143.3132,-223.621 143.2973,-244.8393 143.2875,-257.8945"/>
</g>
<!-- 15 -->
<g id="node15" class="node">
<title>15</title>
<ellipse fill="none" stroke="#000000" cx="213.1867" cy="-226.4554" rx="11" ry="11"/>
<text text-anchor="middle" x="213.1867" y="-224.0554" font-family="Times,serif" font-size="8.00" fill="#000000">3,7</text>
</g>
<!-- 5&#45;&#45;15 -->
<g id="edge22" class="edge">
<title>5--15</title>
<path fill="none" stroke="#000000" d="M153.6387,-203.4085C166.846,-208.5201 189.6093,-217.3302 202.837,-222.4498"/>
</g>
<!-- 6&#45;&#45;7 -->
<g id="edge23" class="edge">
<title>6--7</title>
<path fill="none" stroke="#000000" d="M216.5913,-143.194C225.5556,-132.2566 241.0061,-113.4055 249.9842,-102.4512"/>
</g>
<!-- 6&#45;&#45;15 -->
<g id="edge24" class="edge">
<title>6--15</title>
<path fill="none" stroke="#000000" d="M210.1251,-162.7559C210.8042,-176.884 211.9745,-201.2343 212.6546,-215.3842"/>
</g>
<!-- 16 -->
<g id="node16" class="node">
<title>16</title>
<ellipse fill="none" stroke="#000000" cx="276.0152" cy="-173.7101" rx="11" ry="11"/>
<text text-anchor="middle" x="276.0152" y="-171.3101" font-family="Times,serif" font-size="8.00" fill="#000000">3,4,7</text>
</g>
<!-- 6&#45;&#45;16 -->
<g id="edge25" class="edge">
<title>6--16</title>
<path fill="none" stroke="#000000" d="M220.2667,-155.2614C232.5881,-159.3389 252.7465,-166.0099 265.1495,-170.1144"/>
</g>
<!-- 7&#45;&#45;8 -->
<g id="edge26" class="edge">
<title>7--8</title>
<path fill="none" stroke="#000000" d="M252.8785,-83.6156C247.0658,-69.1704 236.5264,-42.9791 230.6435,-28.3597"/>
</g>
<!-- 7&#45;&#45;16 -->
<g id="edge27" class="edge">
<title>7--16</title>
<path fill="none" stroke="#000000" d="M259.5723,-104.6464C263.1997,-119.8825 269.7935,-147.5776 273.4319,-162.8595"/>
</g>
<!-- 8&#45;&#45;9 -->
<g id="edge28" class="edge">
<title>8--9</title>
<path fill="none" stroke="#000000" d="M215.33,-16.8564C199.6894,-15.5644 171.2592,-13.216 155.5716,-11.9201"/>
</g>
<!-- 9&#45;&#45;10 -->
<g id="edge29" class="edge">
<title>9--10</title>
<path fill="none" stroke="#000000" d="M133.374,-11.7745C117.7237,-12.8706 89.2757,-14.8629 73.5783,-15.9623"/>
</g>
<!-- 10&#45;&#45;11 -->
<g id="edge30" class="edge">
<title>10--11</title>
<path fill="none" stroke="#000000" d="M58.1532,-26.9825C52.1308,-41.3925 41.2111,-67.5201 35.1161,-82.1039"/>
</g>
<!-- 11&#45;&#45;12 -->
<g id="edge31" class="edge">
<title>11--12</title>
<path fill="none" stroke="#000000" d="M28.0438,-103.4448C24.2838,-118.6951 17.4491,-146.416 13.6778,-161.7122"/>
</g>
<!-- 12&#45;&#45;13 -->
<g id="edge32" class="edge">
<title>12--13</title>
<path fill="none" stroke="#000000" d="M19.422,-179.7739C31.2741,-189.9077 52.7637,-208.2818 64.7587,-218.5378"/>
</g>
<!-- 13&#45;&#45;14 -->
<g id="edge33" class="edge">
<title>13--14</title>
<path fill="none" stroke="#000000" d="M82.8657,-231.8156C96.119,-240.0457 120.1493,-254.9682 133.5624,-263.2976"/>
</g>
<!-- 14&#45;&#45;15 -->
<g id="edge34" class="edge">
<title>14--15</title>
<path fill="none" stroke="#000000" d="M152.707,-263.549C165.9749,-255.4115 190.0316,-240.657 203.4594,-232.4214"/>
</g>
<!-- 15&#45;&#45;16 -->
<g id="edge35" class="edge">
<title>15--16</title>
<path fill="none" stroke="#000000" d="M221.66,-219.342C233.5843,-209.3314 255.2049,-191.1806 267.273,-181.0493"/>
</g>
</g>
</svg>